<?xml version="1.0" standalone="no"?>
<!DOCTYPE svg PUBLIC "-//W3C//DTD SVG 20010904//EN"
 "http://www.w3.org/TR/2001/REC-SVG-20010904/DTD/svg10.dtd">
<svg version="1.0" xmlns="http://www.w3.org/2000/svg"
 width="412.000000pt" height="412.000000pt" viewBox="0 0 412.000000 412.000000"
 preserveAspectRatio="xMidYMid meet">
<metadata>
Created by potrace 1.11, written by Peter Selinger 2001-2013
</metadata>
<g transform="translate(0.000000,412.000000) scale(0.100000,-0.100000)"
fill="#000000" stroke="none">
<path d="M1888 4115 c-2 -1 -28 -5 -58 -9 -232 -25 -453 -89 -665 -192 -60
-30 -119 -60 -130 -66 -11 -7 -51 -33 -90 -57 -227 -141 -466 -380 -617 -616
-119 -185 -233 -453 -274 -644 -38 -179 -47 -257 -49 -445 -1 -109 1 -217 5
-240 5 -22 11 -63 14 -91 3 -27 8 -57 10 -65 1 -8 6 -33 10 -55 34 -176 123
-411 223 -590 30 -53 97 -159 114 -178 5 -7 37 -48 71 -92 211 -272 545 -516
878 -639 41 -16 84 -32 95 -36 23 -9 105 -31 120 -32 6 0 20 -4 33 -9 68 -26
267 -51 432 -54 199 -3 303 5 463 39 502 105 922 371 1234 781 199 261 353
629 390 930 2 22 8 67 13 100 8 61 5 392 -4 455 -5 29 -27 163 -31 180 -28
138 -98 337 -169 480 -54 108 -159 283 -191 316 -5 6 -21 26 -35 45 -46 62
-93 113 -182 201 -303 298 -691 494 -1123 565 -75 12 -476 27 -487 18z"/>
</g>
</svg>
